<svg xmlns="http://www.w3.org/2000/svg">
	<symbol id="link" viewBox="0 0 19 19">
		<path d="M19 1C19 0.447716 18.5523 5.73967e-07 18 3.21086e-07L9 1.12188e-06C8.44771 7.84701e-07 8 0.447716 8 1C8 1.55229 8.44771 2 9 2L17 2L17 10C17 10.5523 17.4477 11 18 11C18.5523 11 19 10.5523 19 10L19 1ZM1 18L1.70711 18.7071L18.7071 1.70711L18 1L17.2929 0.292894L0.292893 17.2929L1 18Z" fill="currentColor" />
	</symbol>
	<symbol id="right" viewBox="0 0 26 16">
		<path d="M25.0208 8.70711C25.4114 8.31658 25.4114 7.68342 25.0208 7.29289L18.6569 0.928932C18.2663 0.538408 17.6332 0.538408 17.2427 0.928932C16.8521 1.31946 16.8521 1.95262 17.2427 2.34315L22.8995 8L17.2427 13.6569C16.8521 14.0474 16.8521 14.6805 17.2427 15.0711C17.6332 15.4616 18.2663 15.4616 18.6569 15.0711L25.0208 8.70711ZM0.272095 8V9H24.3137V8V7H0.272095V8Z" fill="currentColor" />
	</symbol>
</svg>
