<svg fill="none" width="14" height="12" viewBox="0 0 36 40" xmlns="http://www.w3.org/2000/svg">
<path d="M3.45833 13.5714H32.625M7.22817 1.25V4.46466M28.4583 1.25V4.46427M28.4583 4.46427H7.625C4.17322 4.46427 1.375 7.34242 1.375 10.8928V32.3215C1.375 35.8718 4.17322 38.75 7.625 38.75H28.4583C31.9101 38.75 34.7083 35.8718 34.7083 32.3215L34.7083 10.8928C34.7083 7.34242 31.9101 4.46427 28.4583 4.46427ZM12.8333 26.4285L15.9583 29.6428L23.25 22.1428" stroke="#F7AE1C" stroke-width="2" stroke-linecap="round" stroke-linejoin="round" />
	<symbol id="icon" viewBox="0 0 36 40">
		<path d="M3.45833 13.5714H32.625M7.22817 1.25V4.46466M28.4583 1.25V4.46427M28.4583 4.46427H7.625C4.17322 4.46427 1.375 7.34242 1.375 10.8928V32.3215C1.375 35.8718 4.17322 38.75 7.625 38.75H28.4583C31.9101 38.75 34.7083 35.8718 34.7083 32.3215L34.7083 10.8928C34.7083 7.34242 31.9101 4.46427 28.4583 4.46427ZM12.8333 26.4285L15.9583 29.6428L23.25 22.1428" stroke="currentColor" stroke-width="2" stroke-linecap="round" stroke-linejoin="round" />
	</symbol>
</svg>
