<svg width="14" height="10" viewBox="0 0 14 10" fill="none" xmlns="http://www.w3.org/2000/svg">
<path d="M5.10115 9.52092C4.9941 9.52092 4.89373 9.50392 4.80006 9.46994C4.70639 9.4365 4.6194 9.37932 4.53911 9.29841L1.08657 5.81929C0.939369 5.67096 0.86898 5.47866 0.875403 5.24241C0.882361 5.00669 0.959441 4.81466 1.10664 4.66633C1.25384 4.51799 1.44119 4.44383 1.66868 4.44383C1.89618 4.44383 2.08352 4.51799 2.23073 4.66633L5.10115 7.55885L11.9059 0.70175C12.0531 0.553415 12.2439 0.479248 12.4784 0.479248C12.7123 0.479248 12.9028 0.553415 13.05 0.70175C13.1972 0.850085 13.2708 1.04211 13.2708 1.27783C13.2708 1.51408 13.1972 1.70638 13.05 1.85471L5.6632 9.29841C5.5829 9.37932 5.49592 9.4365 5.40225 9.46994C5.30857 9.50392 5.20821 9.52092 5.10115 9.52092Z" fill="#1CF71C"/>
</svg>
