<svg width="10" height="12" viewBox="0 0 10 12" fill="none" xmlns="http://www.w3.org/2000/svg">
	<symbol id="icon">
		<path d="M2.45887 11.3183C1.73578 10.8844 1.15215 10.2928 0.707963 9.54347C0.263779 8.79459 0.041687 7.96553 0.041687 7.05629C0.041687 5.88875 0.387737 4.7677 1.07984 3.69314C1.77194 2.61859 2.72229 1.67836 3.93088 0.872442C4.15814 0.717458 4.39324 0.709605 4.6362 0.848884C4.87875 0.988576 5.00002 1.19791 5.00002 1.47688V2.28279C5.00002 2.63409 5.1215 2.92856 5.36446 3.1662C5.607 3.40384 5.90388 3.52266 6.2551 3.52266C6.43071 3.52266 6.59867 3.48402 6.75899 3.40673C6.9189 3.32904 7.06083 3.21786 7.18479 3.07321C7.26743 2.96989 7.37341 2.90521 7.50274 2.87917C7.63166 2.85355 7.75293 2.88206 7.86656 2.96472C8.51734 3.42967 9.02867 4.02378 9.40054 4.74703C9.77242 5.47029 9.95835 6.24004 9.95835 7.05629C9.95835 7.96553 9.73626 8.79459 9.29208 9.54347C8.84789 10.2928 8.26426 10.8844 7.54117 11.3183C7.71677 11.0704 7.85375 10.799 7.95209 10.5044C8.05002 10.2101 8.09898 9.89766 8.09898 9.56703C8.09898 9.15374 8.0215 8.7638 7.86656 8.39721C7.71161 8.03021 7.48952 7.70206 7.20028 7.41275L5.00002 5.25848L2.81525 7.41275C2.51569 7.71239 2.28843 8.04302 2.13348 8.40465C1.97854 8.76628 1.90106 9.15374 1.90106 9.56703C1.90106 9.89766 1.95023 10.2101 2.04857 10.5044C2.1465 10.799 2.28327 11.0704 2.45887 11.3183ZM5.00002 11.3958C4.48353 11.3958 4.04451 11.2175 3.68296 10.8608C3.32142 10.5046 3.14065 10.0733 3.14065 9.56703C3.14065 9.32938 3.18713 9.0996 3.2801 8.87766C3.37307 8.65531 3.50736 8.45631 3.68296 8.28066L5.00002 6.9943L6.31708 8.28066C6.49269 8.45631 6.62697 8.65262 6.71994 8.8696C6.81291 9.08658 6.8594 9.31905 6.8594 9.56703C6.8594 10.0733 6.67862 10.5046 6.31708 10.8608C5.95553 11.2175 5.51651 11.3958 5.00002 11.3958Z" fill="currentColor" />
	</symbol>
</svg>
