<svg width="32" height="42" viewBox="0 0 32 42" fill="none" xmlns="http://www.w3.org/2000/svg">
	<symbol id="icon" viewBox="0 0 32 42">
		<path d="M4.75 14.3333V12.4286C4.75 6.09751 9.76786 1 16 1C22.2321 1 27.25 6.09751 27.25 12.4286V14.3333M4.75 14.3333C2.6875 14.3333 1 16.0476 1 18.1429V37.1905C1 39.2857 2.6875 41 4.75 41H27.25C29.3125 41 31 39.2857 31 37.1905V18.1429C31 16.0476 29.3125 14.3333 27.25 14.3333M4.75 14.3333H27.25M16 23.8571C18.0625 23.8571 19.75 25.5714 19.75 27.6667C19.75 29.7619 18.0625 31.4762 16 31.4762C13.9375 31.4762 12.25 29.7619 12.25 27.6667C12.25 25.5714 13.9375 23.8571 16 23.8571Z" stroke="currentColor" stroke-width="2" />
	</symbol>
</svg>
