<svg width="147" height="32" viewBox="0 0 147 32" fill="none" xmlns="http://www.w3.org/2000/svg">
<path d="M38.186 0H4.48245C2.00686 0 0 2.00686 0 4.48245V27.5175C0 29.9931 2.00686 32 4.48245 32H38.186C40.6616 32 42.6684 29.9931 42.6684 27.5175V4.48245C42.6684 2.00686 40.6616 0 38.186 0Z" fill="white"/>
<path d="M20.0486 9.01792L18.1215 12.9307C18.0297 13.1039 17.8919 13.2484 17.7233 13.3483C17.5547 13.4482 17.3618 13.4996 17.1658 13.4968C16.9698 13.4941 16.7784 13.4373 16.6126 13.3327C16.4469 13.2281 16.3132 13.0798 16.2263 12.9041L13.2611 6.44131C13.1759 6.25994 13.0414 6.10628 12.8728 5.99798C12.7042 5.88968 12.5085 5.83115 12.3082 5.8291H8.64022C8.46538 5.83285 8.29416 5.8796 8.14167 5.96524C7.98919 6.05087 7.86015 6.17274 7.76596 6.32009C7.67176 6.46743 7.61531 6.63571 7.60159 6.81006C7.58787 6.9844 7.61731 7.15944 7.68731 7.3197L9.5825 11.3976C9.65249 11.5578 9.68193 11.7329 9.66821 11.9072C9.6545 12.0815 9.59805 12.2498 9.50385 12.3972C9.40965 12.5445 9.28061 12.6664 9.12813 12.752C8.97565 12.8377 8.80442 12.8844 8.62958 12.8882H6.23397C6.05699 12.8926 5.88391 12.9411 5.73039 13.0293C5.57687 13.1174 5.44775 13.2425 5.35473 13.3931C5.26171 13.5437 5.20773 13.7152 5.19765 13.8919C5.18757 14.0687 5.22172 14.2452 5.29702 14.4054L6.07427 15.9599C6.16007 16.1282 6.28911 16.2706 6.44815 16.3726C6.60719 16.4746 6.7905 16.5324 6.97927 16.5401L11.4617 16.6785C11.6531 16.6869 11.8386 16.7466 11.9988 16.8516C12.159 16.9565 12.288 17.1027 12.3721 17.2748L16.3168 25.5636C16.4062 25.738 16.5419 25.8843 16.7091 25.9865C16.8763 26.0887 17.0685 26.1428 17.2644 26.1428C17.4604 26.1428 17.6525 26.0887 17.8197 25.9865C17.9869 25.8843 18.1227 25.738 18.212 25.5636L23.7911 13.6973C23.8576 13.5558 23.8921 13.4013 23.8921 13.2448C23.8921 13.0884 23.8576 12.9339 23.7911 12.7923L21.9385 8.99663C21.8467 8.82458 21.7095 8.68105 21.5417 8.58167C21.3739 8.4823 21.1821 8.43091 20.9871 8.43311C20.7921 8.4353 20.6015 8.49101 20.436 8.59413C20.2705 8.69726 20.1365 8.84385 20.0486 9.01792Z" fill="#F7AE1C"/>
<path d="M32.969 11.3911L34.8908 7.30789C34.9629 7.14755 34.9942 6.97184 34.9819 6.79645C34.9696 6.62107 34.914 6.45146 34.8201 6.30279C34.7263 6.15411 34.5971 6.03099 34.4441 5.94441C34.291 5.85784 34.119 5.8105 33.9432 5.80664H30.0889C29.8906 5.80871 29.6968 5.86613 29.5294 5.97242C29.362 6.0787 29.2276 6.22963 29.1413 6.4082L22.3325 20.7818C22.2642 20.922 22.2288 21.0758 22.2288 21.2317C22.2288 21.3876 22.2642 21.5414 22.3325 21.6815L24.1904 25.5518C24.2802 25.7248 24.4159 25.8698 24.5825 25.9711C24.7491 26.0723 24.9404 26.1259 25.1353 26.1259C25.3303 26.1259 25.5215 26.0723 25.6882 25.9711C25.8548 25.8698 25.9904 25.7248 26.0803 25.5518L30.0197 17.263C30.1067 17.0854 30.2414 16.9356 30.4088 16.8302C30.5762 16.7249 30.7696 16.6683 30.9673 16.6667H35.6467C35.8471 16.6647 36.0428 16.6061 36.2113 16.4978C36.3799 16.3895 36.5145 16.2359 36.5996 16.0545L37.3929 14.3403C37.4617 14.1803 37.4903 14.0058 37.476 13.8322C37.4617 13.6586 37.4051 13.4911 37.311 13.3445C37.2169 13.1979 37.0883 13.0766 36.9364 12.9913C36.7846 12.9059 36.6141 12.8592 36.4399 12.855H33.9166C33.7456 12.8488 33.5786 12.8014 33.4298 12.7169C33.2811 12.6323 33.1549 12.5132 33.0619 12.3696C32.9689 12.226 32.9119 12.062 32.8958 11.8917C32.8796 11.7214 32.9047 11.5496 32.969 11.3911Z" fill="#F7AE1C"/>
<path d="M56.9197 22.5554L53.8746 10.1621H56.5364L58.2293 17.5512C58.274 17.7084 58.3078 17.8685 58.3305 18.0303C58.3624 18.238 58.3997 18.4616 58.4316 18.6905C58.4636 18.9194 58.4955 19.1217 58.5168 19.3027H58.602C58.602 19.1696 58.6446 19.0205 58.6605 18.8502C58.675 18.6841 58.6981 18.5188 58.7297 18.3551C58.7297 18.1901 58.783 18.0357 58.8149 17.8919C58.8469 17.7482 58.8628 17.6364 58.8735 17.5512L60.4439 10.1621H63.4571L65.0541 17.5512C65.0991 17.7102 65.1329 17.872 65.1553 18.0357C65.1926 18.2433 65.2245 18.4616 65.2618 18.6905C65.299 18.9194 65.3203 19.1217 65.3416 19.3027H65.4268C65.4534 19.1696 65.4747 19.0259 65.5066 18.8661C65.5386 18.7064 65.5599 18.5521 65.5918 18.3924C65.6238 18.2326 65.6504 18.0729 65.6823 17.9292C65.7143 17.7855 65.7462 17.6577 65.7675 17.5512L67.4391 10.1621H69.8613L66.8003 22.5554H63.9255L62.2114 14.932C62.1741 14.7617 62.1368 14.5647 62.0996 14.3464C62.0623 14.1282 62.025 13.8993 61.9878 13.6863C61.9505 13.4734 61.9292 13.2764 61.9026 13.106H61.8387C61.8387 13.2764 61.7908 13.4734 61.7642 13.7023C61.7376 13.9312 61.7003 14.1548 61.6577 14.3731C61.6151 14.5913 61.5832 14.7723 61.5512 14.9054L59.8583 22.5288L56.9197 22.5554Z" fill="white"/>
<path d="M71.7352 22.5554V10.1621H74.2533V22.5554H71.7352Z" fill="white"/>
<path d="M77.2505 22.5554V10.1621H79.5662L84.235 16.8432C84.2989 16.9284 84.3841 17.0455 84.4852 17.1999C84.5864 17.3543 84.6822 17.498 84.7727 17.6417C84.8451 17.7494 84.9074 17.8634 84.959 17.9824H85.0442V10.1621H87.4292V22.5554H85.1028L80.3115 15.7093L79.9549 15.1769C79.8324 14.9693 79.7419 14.8149 79.6834 14.7031H79.6035V22.582L77.2505 22.5554Z" fill="white"/>
<path d="M90.4261 22.5554V10.1621H92.7472L97.416 16.8432C97.4799 16.9284 97.5651 17.0455 97.6662 17.1999C97.7674 17.3543 97.8632 17.498 97.9537 17.6417C98.026 17.7494 98.0884 17.8634 98.14 17.9824H98.2252V10.1621H100.61V22.5554H98.2944L93.5032 15.7093C93.3914 15.5389 93.2689 15.3526 93.1465 15.1769C93.024 15.0012 92.9336 14.8149 92.875 14.7031H92.7898V22.582L90.4261 22.5554Z" fill="white"/>
<path d="M108.707 22.7482C107.66 22.7814 106.622 22.5488 105.689 22.0721C104.835 21.5933 104.165 20.8442 103.783 19.9427C103.311 18.8089 103.086 17.5875 103.123 16.3599C103.123 14.1914 103.616 12.5802 104.603 11.5261C105.137 10.9823 105.78 10.5586 106.491 10.2832C107.202 10.0078 107.963 9.88709 108.723 9.92902C109.623 9.9168 110.514 10.0984 111.337 10.4614C112.087 10.7896 112.722 11.3323 113.163 12.0212C113.637 12.8257 113.868 13.7501 113.829 14.683H111.902C111.922 14.1046 111.788 13.5311 111.513 13.022C111.257 12.5791 110.87 12.226 110.406 12.0105C109.821 11.7603 109.187 11.6442 108.552 11.6709C107.916 11.6977 107.294 11.8665 106.732 12.1649C106.172 12.5151 105.74 13.0383 105.503 13.6555C105.201 14.4632 105.059 15.3223 105.087 16.1842V16.5835C105.06 17.4454 105.201 18.3044 105.503 19.1122C105.735 19.725 106.166 20.2423 106.727 20.5815C107.343 20.9188 108.038 21.0843 108.739 21.0606C109.327 21.0742 109.91 20.9597 110.448 20.7252C110.917 20.5162 111.31 20.1665 111.572 19.7244C111.853 19.2173 111.991 18.6431 111.971 18.0634H113.85C113.886 18.996 113.655 19.9194 113.185 20.7252C112.747 21.4149 112.11 21.9552 111.359 22.2744C110.518 22.6164 109.615 22.7779 108.707 22.7482Z" fill="white"/>
<path d="M122.048 22.7466C120.971 22.7738 119.905 22.5323 118.945 22.0439C118.064 21.5663 117.359 20.8203 116.932 19.9145C116.432 18.7976 116.192 17.5816 116.23 16.3583C116.186 15.1243 116.427 13.8967 116.932 12.7702C117.359 11.8644 118.064 11.1184 118.945 10.6408C119.918 10.1746 120.983 9.93262 122.062 9.93262C123.14 9.93262 124.206 10.1746 125.179 10.6408C126.054 11.1208 126.755 11.8664 127.18 12.7702C127.686 13.8967 127.926 15.1243 127.883 16.3583C127.918 17.5904 127.67 18.8141 127.159 19.9358C126.734 20.8398 126.033 21.5855 125.157 22.0652C124.193 22.5462 123.125 22.7804 122.048 22.7466ZM122.048 21.0324C122.61 21.0426 123.169 20.9506 123.699 20.7609C124.166 20.587 124.585 20.302 124.918 19.9304C125.27 19.5212 125.528 19.0396 125.674 18.5197C125.86 17.882 125.95 17.2197 125.94 16.5553V16.156C125.952 15.4775 125.862 14.801 125.674 14.149C125.526 13.6315 125.268 13.152 124.918 12.7436C124.586 12.3704 124.167 12.0851 123.699 11.9131C122.634 11.5513 121.479 11.5513 120.414 11.9131C119.946 12.0838 119.529 12.3694 119.2 12.7436C118.847 13.1502 118.589 13.6303 118.444 14.149C118.267 14.803 118.183 15.4786 118.194 16.156V16.5553C118.184 17.2186 118.268 17.88 118.444 18.5197C118.588 19.0404 118.846 19.5225 119.2 19.9304C119.53 20.3031 119.947 20.5884 120.414 20.7609C120.937 20.9565 121.49 21.0557 122.048 21.0537V21.0324Z" fill="white"/>
<path d="M130.912 22.5554V10.1621H132.802V22.5554H130.912Z" fill="white"/>
<path d="M136.39 22.5554V10.1621H138.216L143.508 17.9558C143.593 18.0519 143.669 18.1552 143.736 18.2646C143.822 18.3977 143.907 18.5254 143.981 18.6585C144.046 18.7624 144.103 18.871 144.152 18.9833H144.237V10.1621H146.063V22.5554H144.306L138.945 14.6978L138.605 14.1654L138.301 13.6331H138.216V22.5554H136.39Z" fill="white"/>
</svg>
