<svg width="9" height="12" viewBox="0 0 9 12" fill="none" xmlns="http://www.w3.org/2000/svg">
<path d="M1.24158 11.25H7.05009C7.37911 11.25 7.64583 10.9814 7.64583 10.65V9.04718C7.64583 8.9191 7.60514 8.79437 7.52969 8.69126L5.81171 6.34305C5.66141 6.13762 5.65657 5.85892 5.79964 5.64832L7.39282 3.30319C7.46062 3.2034 7.4969 3.0853 7.4969 2.96438V1.35C7.4969 1.01863 7.23017 0.75 6.90115 0.75H1.24158C0.912556 0.75 0.645832 1.01863 0.645832 1.35V2.95282C0.645832 3.0809 0.686529 3.20563 0.761969 3.30874L2.47054 5.64408C2.62539 5.85573 2.62539 6.14427 2.47054 6.35592L0.761969 8.69126C0.686529 8.79437 0.645832 8.9191 0.645832 9.04718V10.65C0.645832 10.9814 0.912556 11.25 1.24158 11.25Z" stroke="#F7AE1C" stroke-linecap="round" stroke-linejoin="round"/>
</svg>
