<svg width="1914" height="485" viewBox="0 0 1914 485" fill="none" xmlns="http://www.w3.org/2000/svg">
<path d="M165.442 332.298L225.711 213.281L304.27 396.588L165.442 332.298Z" stroke="url(#paint0_radial_93_763)" stroke-width="0.5292" stroke-miterlimit="10"/>
<path d="M572.209 263.224L447.661 174.615L488.197 420.574L572.209 263.224Z" stroke="url(#paint1_radial_93_763)" stroke-width="0.5292" stroke-miterlimit="10"/>
<path d="M572.209 263.224L840.31 102.104L1157.69 158.225L742.044 270.373" stroke="url(#paint2_radial_93_763)" stroke-width="0.5292" stroke-miterlimit="10"/>
<path d="M868.467 404.375L742.044 270.373L1027.29 321.886L871.389 164.535L868.467 404.375Z" stroke="url(#paint3_radial_93_763)" stroke-width="0.5292" stroke-miterlimit="10"/>
<path d="M1066.15 686.677L1106.84 516.183L868.467 404.375L866.099 598.84L692.075 497.654L541.835 550.982L379.195 570.824L210.757 518.526L84.3345 463.035L165.442 332.297L225.711 213.28L488.196 420.574L304.27 396.587L210.757 518.526L165.442 332.297L447.661 174.615L84.3345 463.035M1732.74 253.409L1329.75 548.967L1072.86 686.759L1732.74 253.409Z" stroke="url(#paint4_radial_93_763)" stroke-width="0.5292" stroke-miterlimit="10"/>
<path d="M572.209 263.224L742.044 270.373L488.197 420.574L692.075 497.654L572.209 263.224ZM572.209 263.224L304.27 396.587" stroke="url(#paint5_radial_93_763)" stroke-width="0.5292" stroke-miterlimit="10"/>
<path d="M840.31 102.104L742.044 270.373" stroke="url(#paint6_radial_93_763)" stroke-width="0.5292" stroke-miterlimit="10"/>
<path d="M1016.5 34.5771L868.467 404.375" stroke="url(#paint7_radial_93_763)" stroke-width="0.5292" stroke-miterlimit="10"/>
<path d="M1027.29 321.886L1306.18 98.7063L1561.99 320.731L1157.69 158.224L1306.18 98.7063L1388.86 345.954L871.389 164.535" stroke="url(#paint8_radial_93_763)" stroke-width="0.5292" stroke-miterlimit="10"/>
<path d="M1388.86 345.953L1563.37 207.8L1715.47 375.552L1562 320.731L1732.74 253.409L1852.68 540.82L1388.86 345.953Z" stroke="url(#paint9_radial_93_763)" stroke-width="0.5292" stroke-miterlimit="10"/>
<path d="M1306.18 98.7067L1106.84 516.182L1329.75 548.967L1562 320.732L1644.73 562.964L1388.86 345.954L1106.84 516.182L1027.29 321.886L868.467 404.375L1157.69 158.225L1016.5 34.5771L866.929 168.185" stroke="url(#paint10_radial_93_763)" stroke-width="0.5292" stroke-miterlimit="10"/>
<path d="M1563.37 207.801L1027.29 321.887L1329.75 548.967L1157.69 158.225" stroke="url(#paint11_radial_93_763)" stroke-width="0.5292" stroke-miterlimit="10"/>
<path d="M1027.29 321.887L866.099 598.841L1106.84 516.183" stroke="url(#paint12_radial_93_763)" stroke-width="0.5292" stroke-miterlimit="10"/>
<path d="M572.221 680.661L541.836 550.982L488.197 420.574L210.757 518.527L32.9437 658.003L84.3345 463.036L67.0224 274.676L44.8791 393.428L165.442 332.297M32.9437 658.003L120.673 675.161L32.9437 658.003ZM254.283 676.788L379.195 570.825L523.947 680.073L254.283 676.788Z" stroke="url(#paint13_radial_93_763)" stroke-width="0.5292" stroke-miterlimit="10"/>
<path d="M1909.43 386.761L1852.68 540.821L1644.73 562.964L1816.38 659.404L1715.47 375.552L1329.75 548.966L1493.93 662.733L1644.73 562.964L1329.75 548.966M1715.47 375.552L1910.04 336.713L1715.47 375.552Z" stroke="url(#paint14_radial_93_763)" stroke-width="0.5292" stroke-miterlimit="10"/>
<path d="M304.27 396.587L660.611 99.9158L871.389 164.536L742.043 270.373L660.611 99.9158L572.208 263.224L868.467 404.375L692.074 497.654L742.043 270.373L541.835 550.982L304.27 396.587ZM304.27 396.587L379.195 570.825L488.196 420.574" stroke="url(#paint15_radial_93_763)" stroke-width="0.5292" stroke-miterlimit="10"/>
<path d="M-71.4554 628.102L32.9437 658.003L173.147 634.334L211.921 676.272M-69.1304 437.224L44.8791 393.428L-70.3441 536.87L-69.1304 437.224Z" stroke="url(#paint16_radial_93_763)" stroke-width="0.5292" stroke-miterlimit="10"/>
<path d="M869.424 385.957C879.092 386.075 886.833 394.008 886.716 403.676C886.598 413.344 878.665 421.086 868.997 420.968C859.329 420.851 851.587 412.917 851.705 403.25C851.823 393.582 859.756 385.84 869.424 385.957Z" fill="url(#paint17_radial_93_763)" stroke="url(#paint18_radial_93_763)" stroke-width="0.01"/>
<path d="M1027.56 301.348C1034.67 301.435 1040.36 307.498 1040.26 314.891C1040.17 322.283 1034.34 328.205 1027.23 328.119C1020.12 328.032 1014.43 321.969 1014.52 314.577C1014.61 307.184 1020.45 301.262 1027.56 301.348Z" fill="url(#paint19_radial_93_763)" stroke="url(#paint20_radial_93_763)" stroke-width="0.01"/>
<path d="M1564.79 301.711C1573.89 301.821 1581.18 309.287 1581.07 318.387C1580.96 327.486 1573.49 334.772 1564.39 334.661C1555.29 334.55 1548.01 327.084 1548.12 317.985C1548.23 308.886 1555.7 301.6 1564.79 301.711Z" fill="url(#paint21_radial_93_763)" stroke="url(#paint22_radial_93_763)" stroke-width="0.01"/>
<path d="M1387.27 329.424C1395.23 329.521 1401.6 336.054 1401.5 344.015C1401.41 351.977 1394.88 358.352 1386.91 358.255C1378.95 358.158 1372.58 351.625 1372.67 343.664C1372.77 335.703 1379.3 329.327 1387.27 329.424Z" fill="url(#paint23_radial_93_763)" stroke="url(#paint24_radial_93_763)" stroke-width="0.01"/>
<path d="M1159.81 142.251C1168.91 142.361 1176.2 149.597 1176.1 158.412C1175.99 167.227 1168.52 174.283 1159.42 174.172C1150.33 174.061 1143.04 166.825 1143.14 158.011C1143.25 149.196 1150.71 142.14 1159.81 142.251Z" fill="url(#paint25_radial_93_763)" stroke="url(#paint26_radial_93_763)" stroke-width="0.01"/>
<path d="M578.513 249.519C583.63 249.581 587.728 253.78 587.666 258.897C587.604 264.014 583.404 268.112 578.287 268.05C573.17 267.987 569.073 263.788 569.135 258.671C569.198 253.554 573.396 249.457 578.513 249.519Z" fill="url(#paint27_radial_93_763)" stroke="url(#paint28_radial_93_763)" stroke-width="0.01"/>
<path d="M43.7917 381.052C49.1932 381.118 53.5189 385.55 53.4531 390.951C53.3873 396.353 48.9549 400.679 43.5534 400.613C38.1519 400.547 33.8263 396.115 33.892 390.713C33.9578 385.312 38.3901 380.986 43.7917 381.052Z" fill="url(#paint29_radial_93_763)" stroke="url(#paint30_radial_93_763)" stroke-width="0.01"/>
<path d="M85.1321 454.698C90.5337 454.764 94.8593 459.196 94.7935 464.598C94.7277 469.999 90.2954 474.325 84.8939 474.259C79.4923 474.194 75.1667 469.761 75.2325 464.36C75.2983 458.958 79.7306 454.632 85.1321 454.698Z" fill="url(#paint31_radial_93_763)" stroke="url(#paint32_radial_93_763)" stroke-width="0.01"/>
<path d="M655.7 86.6608C664.23 86.7647 671.062 93.7646 670.958 102.295C670.854 110.825 663.854 117.656 655.324 117.552C646.794 117.448 639.963 110.449 640.067 101.919C640.171 93.3884 647.17 86.5572 655.7 86.6608Z" fill="url(#paint33_radial_93_763)" stroke="url(#paint34_radial_93_763)" stroke-width="0.01"/>
<path d="M68.1212 244.333C80.918 244.489 91.165 254.99 91.0091 267.786C90.8531 280.583 80.3535 290.83 67.5568 290.674C54.7599 290.518 44.5121 280.019 44.6678 267.222C44.8237 254.425 55.3242 244.177 68.1212 244.333Z" fill="url(#paint35_radial_93_763)" stroke="url(#paint36_radial_93_763)" stroke-width="0.01"/>
<path d="M449.47 144.93C459.422 145.051 467.394 152.987 467.277 162.655C467.159 172.322 458.996 180.062 449.043 179.941C439.09 179.819 431.118 171.884 431.235 162.216C431.353 152.548 439.517 144.808 449.47 144.93Z" fill="url(#paint37_radial_93_763)" stroke="url(#paint38_radial_93_763)" stroke-width="0.01"/>
<path d="M839.816 97.0872C843.014 97.1261 845.575 99.7491 845.536 102.945C845.497 106.141 842.873 108.7 839.675 108.662C836.477 108.622 833.916 106 833.955 102.804C833.994 99.6081 836.618 97.0483 839.816 97.0872Z" fill="url(#paint39_radial_93_763)" stroke="url(#paint40_radial_93_763)" stroke-width="0.01"/>
<path d="M740.128 259.729C746.383 259.805 751.394 264.707 751.321 270.677C751.249 276.648 746.119 281.425 739.864 281.349C733.609 281.273 728.598 276.372 728.671 270.402C728.743 264.431 733.873 259.653 740.128 259.729Z" fill="url(#paint41_radial_93_763)" stroke="url(#paint42_radial_93_763)" stroke-width="0.01"/>
<path d="M871.455 159.088C874.653 159.127 877.214 161.75 877.175 164.946C877.136 168.142 874.512 170.701 871.314 170.663C868.116 170.624 865.555 168.001 865.594 164.805C865.632 161.609 868.257 159.049 871.455 159.088Z" fill="url(#paint43_radial_93_763)" stroke="url(#paint44_radial_93_763)" stroke-width="0.01"/>
<path d="M158.802 326.823C165.911 326.909 171.606 332.512 171.523 339.335C171.44 346.159 165.61 351.62 158.501 351.534C151.393 351.447 145.698 345.845 145.782 339.022C145.865 332.198 151.694 326.736 158.802 326.823Z" fill="url(#paint45_radial_93_763)" stroke="url(#paint46_radial_93_763)" stroke-width="0.01"/>
<path d="M491.127 404.014C499.088 404.111 505.463 410.644 505.366 418.605C505.269 426.566 498.737 432.941 490.776 432.844C482.814 432.747 476.439 426.215 476.535 418.254C476.632 410.292 483.165 403.917 491.127 404.014Z" fill="url(#paint47_radial_93_763)" stroke="url(#paint48_radial_93_763)" stroke-width="0.01"/>
<path d="M1020.76 13.8426C1030.71 13.9638 1038.68 21.8997 1038.56 31.5676C1038.45 41.2356 1030.28 48.9749 1020.33 48.8537C1010.38 48.7322 1002.41 40.7965 1002.52 31.1286C1002.64 21.4609 1010.8 13.7216 1020.76 13.8426Z" fill="url(#paint49_radial_93_763)" stroke="url(#paint50_radial_93_763)" stroke-width="0.01"/>
<path d="M228.894 196.842C237.424 196.947 244.254 203.947 244.151 212.477C244.046 221.007 237.047 227.837 228.517 227.734C219.987 227.63 213.156 220.63 213.259 212.1C213.363 203.57 220.363 196.739 228.894 196.842Z" fill="url(#paint51_radial_93_763)" stroke="url(#paint52_radial_93_763)" stroke-width="0.01"/>
<path d="M1730.45 233.675C1740.69 233.8 1748.89 241.97 1748.77 251.922C1748.65 261.874 1740.25 269.841 1730.01 269.716C1719.78 269.592 1711.58 261.423 1711.7 251.47C1711.82 241.518 1720.22 233.55 1730.45 233.675Z" fill="url(#paint53_radial_93_763)" stroke="url(#paint54_radial_93_763)" stroke-width="0.01"/>
<path d="M1308.53 69.8882C1319.62 70.0233 1328.5 79.1234 1328.36 90.2133C1328.23 101.304 1319.13 110.184 1308.04 110.049C1296.95 109.914 1288.07 100.815 1288.2 89.7242C1288.34 78.6342 1297.44 69.7531 1308.53 69.8882Z" fill="url(#paint55_radial_93_763)" stroke="url(#paint56_radial_93_763)" stroke-width="0.01"/>
<path d="M1561.99 193.506C1567.68 193.576 1572.23 198.241 1572.16 203.927C1572.09 209.613 1567.43 214.167 1561.74 214.098C1556.05 214.028 1551.5 209.362 1551.57 203.676C1551.64 197.99 1556.31 193.437 1561.99 193.506Z" fill="url(#paint57_radial_93_763)" stroke="url(#paint58_radial_93_763)" stroke-width="0.01"/>
<defs>
<radialGradient id="paint0_radial_93_763" cx="0" cy="0" r="1" gradientTransform="matrix(40.8174 152.872 -119.541 236.426 258.222 239.905)" gradientUnits="userSpaceOnUse">
<stop stop-color="#F7AE1C"/>
<stop offset="1" stop-opacity="0"/>
</radialGradient>
<radialGradient id="paint1_radial_93_763" cx="0" cy="0" r="1" gradientTransform="matrix(35.9007 205.552 -108.86 318.892 529.693 210.921)" gradientUnits="userSpaceOnUse">
<stop stop-color="#F7AE1C"/>
<stop offset="1" stop-opacity="0"/>
</radialGradient>
<radialGradient id="paint2_radial_93_763" cx="0" cy="0" r="1" gradientTransform="matrix(176.84 143.762 -490.785 215.096 957.382 127.906)" gradientUnits="userSpaceOnUse">
<stop stop-color="#F7AE1C"/>
<stop offset="1" stop-opacity="0"/>
</radialGradient>
<radialGradient id="paint3_radial_93_763" cx="0" cy="0" r="1" gradientTransform="matrix(84.9385 201.478 -242.657 309.97 930.58 199.759)" gradientUnits="userSpaceOnUse">
<stop stop-color="#F7AE1C"/>
<stop offset="1" stop-opacity="0"/>
</radialGradient>
<radialGradient id="paint4_radial_93_763" cx="0" cy="0" r="1" gradientTransform="matrix(497.932 427.657 -1383.11 641.329 1167.35 255.951)" gradientUnits="userSpaceOnUse">
<stop stop-color="#F7AE1C"/>
<stop offset="1" stop-opacity="0"/>
</radialGradient>
<radialGradient id="paint5_radial_93_763" cx="0" cy="0" r="1" gradientTransform="matrix(130.968 196.269 -368.174 299.434 591.872 296.973)" gradientUnits="userSpaceOnUse">
<stop stop-color="#F7AE1C"/>
<stop offset="1" stop-opacity="0"/>
</radialGradient>
<radialGradient id="paint6_radial_93_763" cx="0" cy="0" r="1" gradientTransform="matrix(27.6848 141.945 -83.0808 220.062 806.967 126.073)" gradientUnits="userSpaceOnUse">
<stop stop-color="#F7AE1C"/>
<stop offset="1" stop-opacity="0"/>
</radialGradient>
<radialGradient id="paint7_radial_93_763" cx="0" cy="0" r="1" gradientTransform="matrix(40.0892 311.004 -125.821 483.235 966.555 87.4181)" gradientUnits="userSpaceOnUse">
<stop stop-color="#F7AE1C"/>
<stop offset="1" stop-opacity="0"/>
</radialGradient>
<radialGradient id="paint8_radial_93_763" cx="0" cy="0" r="1" gradientTransform="matrix(209.165 208.31 -582.498 314.135 1326.39 134.37)" gradientUnits="userSpaceOnUse">
<stop stop-color="#F7AE1C"/>
<stop offset="1" stop-opacity="0"/>
</radialGradient>
<radialGradient id="paint9_radial_93_763" cx="0" cy="0" r="1" gradientTransform="matrix(139.143 277.027 -394.739 425.032 1696 256.809)" gradientUnits="userSpaceOnUse">
<stop stop-color="#F7AE1C"/>
<stop offset="1" stop-opacity="0"/>
</radialGradient>
<radialGradient id="paint10_radial_93_763" cx="0" cy="0" r="1" gradientTransform="matrix(233.912 437.984 -662.139 671.253 1381.37 113.922)" gradientUnits="userSpaceOnUse">
<stop stop-color="#F7AE1C"/>
<stop offset="1" stop-opacity="0"/>
</radialGradient>
<radialGradient id="paint11_radial_93_763" cx="0" cy="0" r="1" gradientTransform="matrix(159.477 326.702 -452.904 501.487 1379.59 216.829)" gradientUnits="userSpaceOnUse">
<stop stop-color="#F7AE1C"/>
<stop offset="1" stop-opacity="0"/>
</radialGradient>
<radialGradient id="paint12_radial_93_763" cx="0" cy="0" r="1" gradientTransform="matrix(70.4369 233.926 -204.724 361.364 1026.37 361.994)" gradientUnits="userSpaceOnUse">
<stop stop-color="#F7AE1C"/>
<stop offset="1" stop-opacity="0"/>
</radialGradient>
<radialGradient id="paint13_radial_93_763" cx="0" cy="0" r="1" gradientTransform="matrix(160.85 336.065 -457.145 516.027 391.08 336.133)" gradientUnits="userSpaceOnUse">
<stop stop-color="#F7AE1C"/>
<stop offset="1" stop-opacity="0"/>
</radialGradient>
<radialGradient id="paint14_radial_93_763" cx="0" cy="0" r="1" gradientTransform="matrix(173.213 278.773 -487.934 425.974 1711.05 381.912)" gradientUnits="userSpaceOnUse">
<stop stop-color="#F7AE1C"/>
<stop offset="1" stop-opacity="0"/>
</radialGradient>
<radialGradient id="paint15_radial_93_763" cx="0" cy="0" r="1" gradientTransform="matrix(167.653 398.406 -478.998 612.956 677.507 168.348)" gradientUnits="userSpaceOnUse">
<stop stop-color="#F7AE1C"/>
<stop offset="1" stop-opacity="0"/>
</radialGradient>
<radialGradient id="paint16_radial_93_763" cx="0" cy="0" r="1" gradientTransform="matrix(83.9378 235.672 -241.71 363.383 117.322 434.701)" gradientUnits="userSpaceOnUse">
<stop stop-color="#F7AE1C"/>
<stop offset="1" stop-opacity="0"/>
</radialGradient>
<radialGradient id="paint17_radial_93_763" cx="0" cy="0" r="1" gradientTransform="matrix(10.3496 29.3946 -29.8207 45.3299 874.843 391.057)" gradientUnits="userSpaceOnUse">
<stop stop-color="#F7AE1C"/>
<stop offset="1" stop-opacity="0"/>
</radialGradient>
<radialGradient id="paint18_radial_93_763" cx="0" cy="0" r="1" gradientTransform="matrix(10.3496 29.3946 -29.8207 45.3299 874.843 391.057)" gradientUnits="userSpaceOnUse">
<stop stop-color="#F7AE1C"/>
<stop offset="1" stop-opacity="0"/>
</radialGradient>
<radialGradient id="paint19_radial_93_763" cx="0" cy="0" r="1" gradientTransform="matrix(7.59951 22.4744 -21.9433 34.6745 1031.54 305.244)" gradientUnits="userSpaceOnUse">
<stop stop-color="#F7AE1C"/>
<stop offset="1" stop-opacity="0"/>
</radialGradient>
<radialGradient id="paint20_radial_93_763" cx="0" cy="0" r="1" gradientTransform="matrix(7.59951 22.4744 -21.9433 34.6745 1031.54 305.244)" gradientUnits="userSpaceOnUse">
<stop stop-color="#F7AE1C"/>
<stop offset="1" stop-opacity="0"/>
</radialGradient>
<radialGradient id="paint21_radial_93_763" cx="0" cy="0" r="1" gradientTransform="matrix(9.74077 27.6655 -28.0664 42.6634 1569.89 306.509)" gradientUnits="userSpaceOnUse">
<stop stop-color="#F7AE1C"/>
<stop offset="1" stop-opacity="0"/>
</radialGradient>
<radialGradient id="paint22_radial_93_763" cx="0" cy="0" r="1" gradientTransform="matrix(9.74077 27.6655 -28.0664 42.6634 1569.89 306.509)" gradientUnits="userSpaceOnUse">
<stop stop-color="#F7AE1C"/>
<stop offset="1" stop-opacity="0"/>
</radialGradient>
<radialGradient id="paint23_radial_93_763" cx="0" cy="0" r="1" gradientTransform="matrix(8.5232 24.2073 -24.5582 37.3305 1391.73 333.622)" gradientUnits="userSpaceOnUse">
<stop stop-color="#F7AE1C"/>
<stop offset="1" stop-opacity="0"/>
</radialGradient>
<radialGradient id="paint24_radial_93_763" cx="0" cy="0" r="1" gradientTransform="matrix(8.5232 24.2073 -24.5582 37.3305 1391.73 333.622)" gradientUnits="userSpaceOnUse">
<stop stop-color="#F7AE1C"/>
<stop offset="1" stop-opacity="0"/>
</radialGradient>
<radialGradient id="paint25_radial_93_763" cx="0" cy="0" r="1" gradientTransform="matrix(9.7513 26.8047 -28.0502 41.3196 1164.92 146.901)" gradientUnits="userSpaceOnUse">
<stop stop-color="#F7AE1C"/>
<stop offset="1" stop-opacity="0"/>
</radialGradient>
<radialGradient id="paint26_radial_93_763" cx="0" cy="0" r="1" gradientTransform="matrix(9.7513 26.8047 -28.0502 41.3196 1164.92 146.901)" gradientUnits="userSpaceOnUse">
<stop stop-color="#F7AE1C"/>
<stop offset="1" stop-opacity="0"/>
</radialGradient>
<radialGradient id="paint27_radial_93_763" cx="0" cy="0" r="1" gradientTransform="matrix(5.4792 15.5618 -15.7874 23.9981 581.382 252.216)" gradientUnits="userSpaceOnUse">
<stop stop-color="#F7AE1C"/>
<stop offset="1" stop-opacity="0"/>
</radialGradient>
<radialGradient id="paint28_radial_93_763" cx="0" cy="0" r="1" gradientTransform="matrix(5.4792 15.5618 -15.7874 23.9981 581.382 252.216)" gradientUnits="userSpaceOnUse">
<stop stop-color="#F7AE1C"/>
<stop offset="1" stop-opacity="0"/>
</radialGradient>
<radialGradient id="paint29_radial_93_763" cx="0" cy="0" r="1" gradientTransform="matrix(5.7836 16.4265 -16.6645 25.3315 46.8201 383.899)" gradientUnits="userSpaceOnUse">
<stop stop-color="#F7AE1C"/>
<stop offset="1" stop-opacity="0"/>
</radialGradient>
<radialGradient id="paint30_radial_93_763" cx="0" cy="0" r="1" gradientTransform="matrix(5.7836 16.4265 -16.6645 25.3315 46.8201 383.899)" gradientUnits="userSpaceOnUse">
<stop stop-color="#F7AE1C"/>
<stop offset="1" stop-opacity="0"/>
</radialGradient>
<radialGradient id="paint31_radial_93_763" cx="0" cy="0" r="1" gradientTransform="matrix(5.7836 16.4265 -16.6645 25.3315 88.1606 457.546)" gradientUnits="userSpaceOnUse">
<stop stop-color="#F7AE1C"/>
<stop offset="1" stop-opacity="0"/>
</radialGradient>
<radialGradient id="paint32_radial_93_763" cx="0" cy="0" r="1" gradientTransform="matrix(5.7836 16.4265 -16.6645 25.3315 88.1606 457.546)" gradientUnits="userSpaceOnUse">
<stop stop-color="#F7AE1C"/>
<stop offset="1" stop-opacity="0"/>
</radialGradient>
<radialGradient id="paint33_radial_93_763" cx="0" cy="0" r="1" gradientTransform="matrix(9.13199 25.9364 -26.3123 39.997 660.482 91.1595)" gradientUnits="userSpaceOnUse">
<stop stop-color="#F7AE1C"/>
<stop offset="1" stop-opacity="0"/>
</radialGradient>
<radialGradient id="paint34_radial_93_763" cx="0" cy="0" r="1" gradientTransform="matrix(9.13199 25.9364 -26.3123 39.997 660.482 91.1595)" gradientUnits="userSpaceOnUse">
<stop stop-color="#F7AE1C"/>
<stop offset="1" stop-opacity="0"/>
</radialGradient>
<radialGradient id="paint35_radial_93_763" cx="0" cy="0" r="1" gradientTransform="matrix(13.698 38.9046 -39.4685 59.9954 75.2937 251.084)" gradientUnits="userSpaceOnUse">
<stop stop-color="#F7AE1C"/>
<stop offset="1" stop-opacity="0"/>
</radialGradient>
<radialGradient id="paint36_radial_93_763" cx="0" cy="0" r="1" gradientTransform="matrix(13.698 38.9046 -39.4685 59.9954 75.2937 251.084)" gradientUnits="userSpaceOnUse">
<stop stop-color="#F7AE1C"/>
<stop offset="1" stop-opacity="0"/>
</radialGradient>
<radialGradient id="paint37_radial_93_763" cx="0" cy="0" r="1" gradientTransform="matrix(10.6645 29.3983 -30.6814 45.3192 455.05 150.031)" gradientUnits="userSpaceOnUse">
<stop stop-color="#F7AE1C"/>
<stop offset="1" stop-opacity="0"/>
</radialGradient>
<radialGradient id="paint38_radial_93_763" cx="0" cy="0" r="1" gradientTransform="matrix(10.6645 29.3983 -30.6814 45.3192 455.05 150.031)" gradientUnits="userSpaceOnUse">
<stop stop-color="#F7AE1C"/>
<stop offset="1" stop-opacity="0"/>
</radialGradient>
<radialGradient id="paint39_radial_93_763" cx="0" cy="0" r="1" gradientTransform="matrix(3.42557 9.72328 -9.8699 14.9943 841.61 98.7707)" gradientUnits="userSpaceOnUse">
<stop stop-color="#F7AE1C"/>
<stop offset="1" stop-opacity="0"/>
</radialGradient>
<radialGradient id="paint40_radial_93_763" cx="0" cy="0" r="1" gradientTransform="matrix(3.42557 9.72328 -9.8699 14.9943 841.61 98.7707)" gradientUnits="userSpaceOnUse">
<stop stop-color="#F7AE1C"/>
<stop offset="1" stop-opacity="0"/>
</radialGradient>
<radialGradient id="paint41_radial_93_763" cx="0" cy="0" r="1" gradientTransform="matrix(6.70728 18.1593 -19.2793 27.9874 743.636 262.878)" gradientUnits="userSpaceOnUse">
<stop stop-color="#F7AE1C"/>
<stop offset="1" stop-opacity="0"/>
</radialGradient>
<radialGradient id="paint42_radial_93_763" cx="0" cy="0" r="1" gradientTransform="matrix(6.70728 18.1593 -19.2793 27.9874 743.636 262.878)" gradientUnits="userSpaceOnUse">
<stop stop-color="#F7AE1C"/>
<stop offset="1" stop-opacity="0"/>
</radialGradient>
<radialGradient id="paint43_radial_93_763" cx="0" cy="0" r="1" gradientTransform="matrix(3.42551 9.72328 -9.86975 14.9943 873.248 160.772)" gradientUnits="userSpaceOnUse">
<stop stop-color="#F7AE1C"/>
<stop offset="1" stop-opacity="0"/>
</radialGradient>
<radialGradient id="paint44_radial_93_763" cx="0" cy="0" r="1" gradientTransform="matrix(3.42551 9.72328 -9.86975 14.9943 873.248 160.772)" gradientUnits="userSpaceOnUse">
<stop stop-color="#F7AE1C"/>
<stop offset="1" stop-opacity="0"/>
</radialGradient>
<radialGradient id="paint45_radial_93_763" cx="0" cy="0" r="1" gradientTransform="matrix(7.62047 20.753 -21.9106 31.9871 162.789 330.423)" gradientUnits="userSpaceOnUse">
<stop stop-color="#F7AE1C"/>
<stop offset="1" stop-opacity="0"/>
</radialGradient>
<radialGradient id="paint46_radial_93_763" cx="0" cy="0" r="1" gradientTransform="matrix(7.62047 20.753 -21.9106 31.9871 162.789 330.423)" gradientUnits="userSpaceOnUse">
<stop stop-color="#F7AE1C"/>
<stop offset="1" stop-opacity="0"/>
</radialGradient>
<radialGradient id="paint47_radial_93_763" cx="0" cy="0" r="1" gradientTransform="matrix(8.52318 24.2073 -24.5581 37.3305 495.59 408.212)" gradientUnits="userSpaceOnUse">
<stop stop-color="#F7AE1C"/>
<stop offset="1" stop-opacity="0"/>
</radialGradient>
<radialGradient id="paint48_radial_93_763" cx="0" cy="0" r="1" gradientTransform="matrix(8.52318 24.2073 -24.5581 37.3305 495.59 408.212)" gradientUnits="userSpaceOnUse">
<stop stop-color="#F7AE1C"/>
<stop offset="1" stop-opacity="0"/>
</radialGradient>
<radialGradient id="paint49_radial_93_763" cx="0" cy="0" r="1" gradientTransform="matrix(10.6645 29.3984 -30.6814 45.3194 1026.34 18.9437)" gradientUnits="userSpaceOnUse">
<stop stop-color="#F7AE1C"/>
<stop offset="1" stop-opacity="0"/>
</radialGradient>
<radialGradient id="paint50_radial_93_763" cx="0" cy="0" r="1" gradientTransform="matrix(10.6645 29.3984 -30.6814 45.3194 1026.34 18.9437)" gradientUnits="userSpaceOnUse">
<stop stop-color="#F7AE1C"/>
<stop offset="1" stop-opacity="0"/>
</radialGradient>
<radialGradient id="paint51_radial_93_763" cx="0" cy="0" r="1" gradientTransform="matrix(9.132 25.9363 -26.3123 39.9968 233.675 201.341)" gradientUnits="userSpaceOnUse">
<stop stop-color="#F7AE1C"/>
<stop offset="1" stop-opacity="0"/>
</radialGradient>
<radialGradient id="paint52_radial_93_763" cx="0" cy="0" r="1" gradientTransform="matrix(9.132 25.9363 -26.3123 39.9968 233.675 201.341)" gradientUnits="userSpaceOnUse">
<stop stop-color="#F7AE1C"/>
<stop offset="1" stop-opacity="0"/>
</radialGradient>
<radialGradient id="paint53_radial_93_763" cx="0" cy="0" r="1" gradientTransform="matrix(10.9689 30.263 -31.5584 46.6526 1736.19 238.926)" gradientUnits="userSpaceOnUse">
<stop stop-color="#F7AE1C"/>
<stop offset="1" stop-opacity="0"/>
</radialGradient>
<radialGradient id="paint54_radial_93_763" cx="0" cy="0" r="1" gradientTransform="matrix(10.9689 30.263 -31.5584 46.6526 1736.19 238.926)" gradientUnits="userSpaceOnUse">
<stop stop-color="#F7AE1C"/>
<stop offset="1" stop-opacity="0"/>
</radialGradient>
<radialGradient id="paint55_radial_93_763" cx="0" cy="0" r="1" gradientTransform="matrix(11.8716 33.7173 -34.206 51.996 1314.74 75.7379)" gradientUnits="userSpaceOnUse">
<stop stop-color="#F7AE1C"/>
<stop offset="1" stop-opacity="0"/>
</radialGradient>
<radialGradient id="paint56_radial_93_763" cx="0" cy="0" r="1" gradientTransform="matrix(11.8716 33.7173 -34.206 51.996 1314.74 75.7379)" gradientUnits="userSpaceOnUse">
<stop stop-color="#F7AE1C"/>
<stop offset="1" stop-opacity="0"/>
</radialGradient>
<radialGradient id="paint57_radial_93_763" cx="0" cy="0" r="1" gradientTransform="matrix(6.088 17.2909 -17.5416 26.6646 1565.18 196.504)" gradientUnits="userSpaceOnUse">
<stop stop-color="#F7AE1C"/>
<stop offset="1" stop-opacity="0"/>
</radialGradient>
<radialGradient id="paint58_radial_93_763" cx="0" cy="0" r="1" gradientTransform="matrix(6.088 17.2909 -17.5416 26.6646 1565.18 196.504)" gradientUnits="userSpaceOnUse">
<stop stop-color="#F7AE1C"/>
<stop offset="1" stop-opacity="0"/>
</radialGradient>
</defs>
</svg>
