<svg width="42" height="42" viewBox="0 0 42 42" fill="none" xmlns="http://www.w3.org/2000/svg">
	<symbol id="icon">
		<path d="M41 30.5V31.5C41.5523 31.5 42 31.0523 42 30.5H41ZM41 19.5H42C42 18.9477 41.5523 18.5 41 18.5V19.5ZM11.4592 9.65882C10.9947 9.95747 10.8602 10.5762 11.1588 11.0408C11.4575 11.5053 12.0762 11.6398 12.5408 11.3412L12 10.5L11.4592 9.65882ZM26 1.5L26.7893 0.886059C26.4716 0.477515 25.8946 0.378942 25.4592 0.658822L26 1.5ZM32.2106 11.1139C32.5497 11.5499 33.178 11.6284 33.6139 11.2894C34.0499 10.9503 34.1284 10.322 33.7893 9.88606L33 10.5L32.2106 11.1139ZM41 30.5V29.5H34.5V30.5V31.5H41V30.5ZM34.5 19.5V20.5H41V19.5V18.5H34.5V19.5ZM41 19.5H40V30.5H41H42V19.5H41ZM29 25H30C30 22.5147 32.0147 20.5 34.5 20.5V19.5V18.5C30.9101 18.5 28 21.4102 28 25H29ZM34.5 30.5V29.5C32.0147 29.5 30 27.4853 30 25H29H28C28 28.5899 30.9101 31.5 34.5 31.5V30.5ZM12 10.5L12.5408 11.3412L26.5408 2.34118L26 1.5L25.4592 0.658822L11.4592 9.65882L12 10.5ZM26 1.5L25.2106 2.11394L32.2106 11.1139L33 10.5L33.7893 9.88606L26.7893 0.886059L26 1.5ZM3 10.5V11.5H37V10.5V9.5H3V10.5ZM37 40.5V39.5H3V40.5V41.5H37V40.5ZM1 38.5H2V12.5H1H0V38.5H1ZM3 40.5V39.5C2.44772 39.5 2 39.0523 2 38.5H1H0C0 40.1569 1.34314 41.5 3 41.5V40.5ZM39 38.5H38C38 39.0523 37.5523 39.5 37 39.5V40.5V41.5C38.6568 41.5 40 40.1569 40 38.5H39ZM37 10.5V11.5C37.5523 11.5 38 11.9477 38 12.5H39H40C40 10.8431 38.6568 9.5 37 9.5V10.5ZM3 10.5V9.5C1.34315 9.5 0 10.8431 0 12.5H1H2C2 11.9477 2.44772 11.5 3 11.5V10.5ZM39 32H38V38.5H39H40V32H39ZM39 12.5H38V17.75H39H40V12.5H39Z" fill="currentColor" />
	</symbol>
</svg>
